<?xml version="1.0" encoding="UTF-8" standalone="no"?>
<svg
   xmlns:dc="http://purl.org/dc/elements/1.1/"
   xmlns:cc="http://creativecommons.org/ns#"
   xmlns:rdf="http://www.w3.org/1999/02/22-rdf-syntax-ns#"
   xmlns:svg="http://www.w3.org/2000/svg"
   xmlns="http://www.w3.org/2000/svg"
   xmlns:sodipodi="http://sodipodi.sourceforge.net/DTD/sodipodi-0.dtd"
   xmlns:inkscape="http://www.inkscape.org/namespaces/inkscape"
   id="Layer_1"
   viewBox="0 0 1000.1441 125.34779"
   version="1.1"
   sodipodi:docname="Kimberly-Clark_new_logo.svg"
   inkscape:version="1.0.2 (e86c870879, 2021-01-15, custom)"
   width="1000.1441"
   height="125.34779">
  <metadata
     id="metadata19">
    <rdf:RDF>
      <cc:Work
         rdf:about="">
        <dc:format>image/svg+xml</dc:format>
        <dc:type
           rdf:resource="http://purl.org/dc/dcmitype/StillImage" />
        <dc:title></dc:title>
      </cc:Work>
    </rdf:RDF>
  </metadata>
  <defs
     id="defs17" />
  <sodipodi:namedview
     pagecolor="#ffffff"
     bordercolor="#666666"
     borderopacity="1"
     objecttolerance="10"
     gridtolerance="10"
     guidetolerance="10"
     inkscape:pageopacity="0"
     inkscape:pageshadow="2"
     inkscape:window-width="1366"
     inkscape:window-height="715"
     id="namedview15"
     showgrid="false"
     inkscape:zoom="0.3426045"
     inkscape:cx="270.84118"
     inkscape:cy="-105.6441"
     inkscape:window-x="-8"
     inkscape:window-y="-8"
     inkscape:window-maximized="1"
     inkscape:current-layer="Layer_1" />
  <style
     id="style2">.st0{fill:#1a3561}.st1{fill:#fff}</style>
  <g
     id="g105"
     transform="scale(1.0542259)">
    <path
       d="m 863.3,44.100305 h 0.2 c 5.4,-7 11.7,-8.2 18.7,-8.2 l -1.3,17.9 c -1.5,-0.1 -3,-0.1 -4.4,-0.1 -13.9,0 -14.4,8 -14.9,17.3 l -1.3,20.9 h -21.7 l 2.9,-41.6 c 0.4,-5 0.5,-8.4 0.3,-14.5 h 20.7 z"
       id="path67"
       style="fill:#0f059e;fill-opacity:1" />
    <path
       d="m 753.2,91.900305 5.6,-80.4 h 20.5 l -5.6,80.4 z"
       id="path65"
       style="fill:#0f059e;fill-opacity:1" />
    <path
       d="m 720,9.400305 c 16.6,0 33.5,7.2 32.8,27.4 H 730 c 0,-5.3 -3.1,-11.3 -10.8,-11.3 -7.7,0 -16.8,5.8 -18.4,22.4 -1.6,16.6 0.5,29.3 14,29.3 11.7,0 14,-10.1 14.2,-12 h 22.6 c 0,9 -7.4,27.5 -38.1,27.5 -32.4,0 -38.1,-23.6 -35.5,-45.5 2.3,-18.4 15.4,-37.8 42,-37.8 z"
       id="path63"
       style="fill:#0f059e;fill-opacity:1" />
    <path
       d="m 649.4,47.100305 h 27.1 l -8.7,17.5 h -27.1 z"
       id="path61"
       style="fill:#0f059e;fill-opacity:1" />
    <path
       d="m 607.3,118.90031 h -19.5 l 12.6,-26.100005 -20.6,-57 h 23.9 l 9.2,34.8 14.7,-34.8 h 19.7 z"
       id="path59"
       style="fill:#0f059e;fill-opacity:1" />
    <path
       d="m 304.1,35.800305 v 7.6 h 0.2 c 6.2,-8.2 14.8,-8.9 20.1,-8.9 7.6,0 15.5,4.2 17,9.9 4.3,-6.7 12,-10 20.5,-10.2 12.2,0 20.7,7.8 19.9,20.2 l -2.7,37.5 h -21.4 l 2.3,-32.9 c 0.3,-5.3 -0.1,-11.4 -7.2,-11.4 -10.3,0 -9.9,11.5 -10,12.2 l -2.1,32.1 h -21.6 l 2.4,-32.9 c 0.1,-5.5 -0.6,-11.4 -7.4,-11.4 -10.9,0 -10.6,11.5 -10.6,12.2 l -2.2,32.2 h -22.2 l 3.9,-56.1 z"
       id="path57"
       style="fill:#0f059e;fill-opacity:1" />
    <path
       d="m 258.8,35.800305 h 20 l -3.9,56.1 h -20 z"
       id="path55"
       style="fill:#0f059e;fill-opacity:1" />
    <path
       d="m 227.1,11.500305 -28.1,35.7 25,44.7 h 28.2 l -28.1,-45.9 29.6,-34.5 z"
       id="path53"
       style="fill:#0f059e;fill-opacity:1" />
    <path
       d="M 177.5,11.500305 H 201 l -5.6,80.4 h -23.6 z"
       id="path51"
       style="fill:#0f059e;fill-opacity:1" />
    <path
       id="path47"
       d="m 471.4,67.500305 c -0.6,7.7 1.1,14 9.1,14 5.9,0 9.6,-3.9 9.6,-7.6 h 19.6 c -0.4,6.8 -5.2,12.1 -10.8,15.2 -5.1,3.1 -11,3.7 -17.3,3.7 -22.8,0 -31.7,-9.5 -30.3,-30.7 1.2,-17.7 15.4,-28.2 32.3,-27.9 22.5,0.4 29.7,13.6 27.6,33.4 h -39.8 z m 20.3,-10.6 c 0.2,-3 -0.5,-6 -2,-8.4 -1.5,-2.3 -3.8,-3.8 -7,-3.6 -7.4,0.3 -9.3,5.6 -10.3,11.9 h 19.3 z"
       style="fill:#0f059e;fill-opacity:1" />
    <path
       id="path43"
       d="m 389,11.500305 h 21 l -2.2,32 h 0.4 c 4.2,-5 10.1,-9.2 17.7,-9.2 17.2,0 23.8,15.1 22.8,28.7 -0.9,13.8 -8.2,29.6 -27.3,29.6 -6.5,0 -12.7,-3.6 -15.6,-7.7 h -0.4 l -1.3,6.8 h -20.6 z m 16.8,53.1 c -0.3,6.8 1.4,16.5 9.1,16.5 9.7,0 12.1,-9.7 12.5,-17.5 0.3,-6.9 -1,-17.1 -9.3,-17 -10.6,0 -12,10.6 -12.3,18 z"
       style="fill:#0f059e;fill-opacity:1" />
    <path
       d="m 554,91.900305 5.6,-80.4 h 20.5 l -5.6,80.4 z"
       id="path41"
       style="fill:#0f059e;fill-opacity:1" />
    <path
       d="m 536.7,44.100305 h 0.2 c 5.4,-7 11.7,-8.2 18.6,-8.2 l -1.3,17.9 c -1.4,-0.1 -2.9,-0.1 -4.3,-0.1 -13.9,0 -14.4,8 -14.9,17.3 l -1.3,20.9 H 512 l 2.9,-41.6 c 0.4,-5 0.5,-8.4 0.3,-14.5 h 20.7 z"
       id="path39"
       style="fill:#0f059e;fill-opacity:1" />
    <path
       d="m 904.7,60.700305 20,-24.9 h 24 l -21.6,23.7 20.4,32.4 h -26 z"
       id="path37"
       style="fill:#0f059e;fill-opacity:1" />
    <path
       d="m 881.4,91.900305 5.6,-80.4 h 21.2 l -5.6,80.4 z"
       id="path35"
       style="fill:#0f059e;fill-opacity:1" />
    <path
       id="path31"
       d="m 814,85.000305 h -0.2 c -4.5,4.2 -8.8,7.3 -17,7.3 -13.3,0 -18.8,-7.5 -18.8,-17.4 0,-11.1 11.4,-18.3 31.7,-18.3 h 6.7 c 0.3,-4.9 2,-13 -6.3,-13 -6,0 -7.4,5.7 -7.5,8.4 h -19.3 c 0.4,-7.3 3.6,-12.2 9.5,-14.7 6,-2.7 13.3,-3.3 19.5,-3.3 11.4,0 25.3,5.7 24.4,19.5 l -1.6,26.9 c -0.2,2.3 -0.2,4.8 0.1,11.5 h -20 z m -9.2,-3.8 c 9.9,0 10.5,-9.2 11,-16.7 -4.5,0 -8.7,-0.2 -11.7,1.2 -3.2,1.6 -5.6,4.2 -5.9,8.1 -0.2,4.2 2.6,7.4 6.6,7.4 z"
       style="fill:#0f059e;fill-opacity:1" />
    <path
       d="m 260.8,11.500305 h 20 l -1,14.5 h -20 z"
       id="path29"
       style="fill:#0f059e;fill-opacity:1" />
    <path
       id="path27"
       style="fill:#0f059e;fill-opacity:1"
       d="m 51.8,12.000305 v 34.2 c -2.7,-6.2 -8.7,-11.7 -14.8,-15.4 H 11.3 c 8.3,6.2 21.5,15.9 21.5,23.7 0,3.9 -4.7,4.6 -7.4,4.6 H 9.2 v 18.6 h 25.4 c 5.7,0 13.9,-2.1 17.2,-10.8 v 24.9 h 23.6 v -24.9 c 3.3,8.8 11.5,10.8 17.2,10.8 H 118 v -18.6 h -16.2 c -2.7,0 -7.4,-0.8 -7.4,-4.6 0,-7.8 13.2,-17.5 21.5,-23.7 H 90.2 c -6.1,3.7 -12.1,9.2 -14.8,15.4 v -34.2 z M 63.6,3.0503609e-4 c 35.1,0 63.6,24.49999996391 63.6,54.69999996391 0,30.2 -28.5,54.700005 -63.6,54.700005 C 28.5,109.40031 0,84.900305 0,54.700305 0,24.400305 28.4,-0.09969496 63.6,3.0503609e-4 Z" />
  </g>
</svg>
